<?xml version="1.0" encoding="UTF-8"?>
<!DOCTYPE svg PUBLIC "-//W3C//DTD SVG 1.1//EN" "http://www.w3.org/Graphics/SVG/1.1/DTD/svg11.dtd">
<!-- Creator: CorelDRAW 2018 (64 Bit Versión de evaluación) -->
<svg xmlns="http://www.w3.org/2000/svg" xml:space="preserve" width="2539px" height="3307px" version="1.1" style="shape-rendering:geometricPrecision; text-rendering:geometricPrecision; image-rendering:optimizeQuality; fill-rule:evenodd; clip-rule:evenodd"
viewBox="0 0 2539 3306.6"
 xmlns:xlink="http://www.w3.org/1999/xlink">
 <defs>
  <style type="text/css">
   <![CDATA[
    .str0 {stroke:#002060;stroke-width:3.89;stroke-miterlimit:22.9256}
    .str1 {stroke:#41719C;stroke-width:3.89;stroke-miterlimit:22.9256}
    .str2 {stroke:#41719C;stroke-width:0.88;stroke-miterlimit:22.9256}
    .fil2 {fill:none}
    .fil1 {fill:#002060}
    .fil3 {fill:#66FFCC}
    .fil0 {fill:#BFBFBF}
    .fil4 {fill:#41719C;fill-rule:nonzero}
    .fil6 {fill:#66FFCC;fill-rule:nonzero}
    .fil5 {fill:#A6A6A6;fill-rule:nonzero}
   ]]>
  </style>
 </defs>
 <g id="Capa_x0020_1">
  <metadata id="CorelCorpID_0Corel-Layer"/>
  <g id="_2343870879472">
   <polygon class="fil0" points="1021.79,2018.75 1013.53,2009.04 1005.27,1998.83 997.99,1988.63 991.18,1977.94 985.35,1966.77 980.01,1955.59 975.15,1944.42 970.78,1932.27 966.89,1920.61 963.97,1908.46 961.54,1896.32 960.09,1883.68 959.12,1871.54 958.14,1858.9 958.63,1846.27 959.12,1833.64 960.57,1821.01 962.52,1808.37 964.95,1795.74 967.86,1783.11 971.75,1770.48 976.12,1758.33 980.98,1746.18 986.32,1734.04 992.64,1721.89 998.96,1710.23 1006.24,1699.06 1014.02,1687.88 1022.76,1676.7 1031.51,1666.02 1041.23,1655.81 1051.43,1645.61 1062.12,1636.38 1072.81,1627.15 1083.98,1618.89 1095.64,1611.6 1107.3,1604.31 1118.96,1597.51 1131.11,1591.68 1143.26,1586.34 1155.89,1581.96 1168.52,1577.59 1181.16,1574.19 1193.79,1571.27 1206.42,1568.84 1219.05,1567.39 1231.69,1565.93 1244.32,1565.44 1256.95,1565.93 1269.58,1566.41 1282.22,1567.87 1294.85,1569.82 1306.99,1572.25 1319.14,1575.16 1330.8,1579.05 1342.46,1583.42 1354.12,1588.28 1365.3,1594.11 1375.99,1599.94 1386.67,1606.74 1396.88,1614.03 1406.59,1622.29 1416.31,1630.55 1425.54,1639.78 1408.54,1638.32 1392.02,1637.35 1375.5,1637.35 1358.98,1638.32 1342.46,1639.78 1325.94,1642.21 1309.91,1645.61 1293.88,1649.5 1277.84,1654.36 1262.29,1659.7 1247.23,1666.02 1232.17,1672.82 1217.59,1680.11 1203.02,1688.37 1188.93,1697.11 1175.32,1706.34 1162.21,1716.55 1149.09,1726.75 1136.94,1737.92 1125.28,1749.58 1113.62,1761.73 1102.93,1774.85 1092.73,1787.97 1083.01,1801.57 1073.78,1815.66 1065.52,1830.24 1057.75,1845.3 1050.46,1860.36 1044.14,1876.4 1038.31,1892.43 1033.45,1908.95 1029.08,1925.47 1025.19,1948.79 1022.28,1972.11 1021.31,1995.43 "/>
   <polygon class="fil0" points="872.15,1575.65 872.63,1565.44 874.09,1556.21 876.52,1546.98 879.92,1537.75 884.29,1529.49 889.64,1521.72 895.95,1514.43 902.27,1507.63 910.04,1501.31 917.82,1495.48 926.56,1490.62 935.8,1486.73 945.03,1483.33 955.23,1481.39 965.43,1479.93 976.12,1479.45 986.81,1479.93 997.01,1481.39 1007.22,1483.33 1016.93,1486.73 1025.68,1490.62 1034.42,1495.48 1042.2,1501.31 1049.97,1507.63 1056.77,1514.43 1062.6,1521.72 1067.95,1529.49 1072.32,1537.75 1075.72,1546.98 1078.15,1556.21 1079.61,1565.44 1080.58,1575.65 1079.61,1585.36 1078.15,1594.59 1075.72,1603.83 1072.32,1613.06 1067.95,1621.32 1062.6,1629.09 1056.77,1636.38 1049.97,1643.67 1042.2,1649.5 1034.42,1655.33 1025.68,1660.19 1016.93,1664.07 1007.22,1667.47 997.01,1669.9 986.81,1671.36 976.12,1671.85 965.43,1671.36 955.23,1669.9 945.03,1667.47 935.8,1664.07 926.56,1660.19 917.82,1655.33 910.04,1649.5 902.27,1643.67 895.95,1636.38 889.64,1629.09 884.29,1621.32 879.92,1613.06 876.52,1603.83 874.09,1594.59 872.63,1585.36 "/>
   <polygon class="fil1" points="1220.02,1552.81 1228.77,1544.55 1237.51,1537.26 1246.75,1530.46 1256.95,1524.14 1267.15,1518.8 1277.36,1513.94 1288.04,1509.57 1299.22,1505.68 1310.88,1502.77 1322.54,1500.34 1334.2,1498.39 1346.35,1497.42 1358.49,1496.94 1370.64,1496.94 1383.27,1497.42 1395.91,1498.88 1408.54,1500.82 1421.17,1503.25 1433.8,1506.17 1446.92,1510.06 1459.55,1513.94 1472.19,1518.8 1484.82,1524.14 1497.45,1530.46 1509.6,1536.78 1522.23,1544.07 1534.38,1551.84 1546.52,1560.1 1558.18,1568.84 1569.84,1578.56 1581.02,1588.28 1592.2,1598.97 1602.4,1609.66 1612.6,1621.32 1622.32,1632.49 1631.06,1644.15 1639.32,1656.3 1647.58,1668.45 1654.39,1680.59 1661.19,1693.22 1667.5,1705.37 1672.85,1718 1677.71,1730.64 1682.08,1743.27 1685.97,1756.39 1688.88,1769.02 1691.8,1781.65 1693.74,1794.29 1694.71,1806.92 1695.68,1819.55 1695.68,1831.7 1695.2,1843.84 1694.23,1855.99 1692.77,1867.65 1690.34,1879.31 1687.42,1890.97 1683.54,1902.15 1679.65,1912.84 1674.79,1923.52 1668.96,1933.73 1663.13,1943.44 1656.33,1952.68 1649.04,1961.91 1640.78,1970.65 1640.78,1954.13 1639.32,1937.61 1637.87,1921.09 1634.95,1904.57 1631.55,1888.06 1627.18,1871.54 1621.83,1855.5 1616.49,1839.47 1609.69,1823.44 1602.88,1807.89 1594.62,1792.34 1586.36,1777.28 1577.13,1762.22 1567.42,1747.64 1557.21,1733.07 1546.52,1719.46 1534.86,1705.86 1523.2,1692.25 1510.57,1679.62 1497.94,1667.47 1484.33,1655.81 1470.73,1644.15 1456.64,1633.46 1441.58,1623.26 1427,1613.54 1411.45,1604.31 1395.91,1596.05 1379.87,1588.28 1363.35,1580.99 1346.83,1574.67 1329.83,1569.33 1312.82,1564.47 1289.5,1559.13 1266.18,1555.24 1242.86,1553.3 "/>
   <polyline class="fil2 str0" points="1220.02,1552.81 1228.77,1544.55 1237.51,1537.26 1246.75,1530.46 1256.95,1524.14 1267.15,1518.8 1277.36,1513.94 1288.04,1509.57 1299.22,1505.68 1310.88,1502.77 1322.54,1500.34 1334.2,1498.39 1346.35,1497.42 1358.49,1496.94 1370.64,1496.94 1383.27,1497.42 1395.91,1498.88 1408.54,1500.82 1421.17,1503.25 1433.8,1506.17 1446.92,1510.06 1459.55,1513.94 1472.19,1518.8 1484.82,1524.14 1497.45,1530.46 1509.6,1536.78 1522.23,1544.07 1534.38,1551.84 1546.52,1560.1 1558.18,1568.84 1569.84,1578.56 1581.02,1588.28 1592.2,1598.97 1602.4,1609.66 1612.6,1621.32 1622.32,1632.49 1631.06,1644.15 1639.32,1656.3 1647.58,1668.45 1654.39,1680.59 1661.19,1693.22 1667.5,1705.37 1672.85,1718 1677.71,1730.64 1682.08,1743.27 1685.97,1756.39 1688.88,1769.02 1691.8,1781.65 1693.74,1794.29 1694.71,1806.92 1695.68,1819.55 1695.68,1831.7 1695.2,1843.84 1694.23,1855.99 1692.77,1867.65 1690.34,1879.31 1687.42,1890.97 1683.54,1902.15 1679.65,1912.84 1674.79,1923.52 1668.96,1933.73 1663.13,1943.44 1656.33,1952.68 1649.04,1961.91 1640.78,1970.65 1640.78,1954.13 1639.32,1937.61 1637.87,1921.09 1634.95,1904.57 1631.55,1888.06 1627.18,1871.54 1621.83,1855.5 1616.49,1839.47 1609.69,1823.44 1602.88,1807.89 1594.62,1792.34 1586.36,1777.28 1577.13,1762.22 1567.42,1747.64 1557.21,1733.07 1546.52,1719.46 1534.86,1705.86 1523.2,1692.25 1510.57,1679.62 1497.94,1667.47 1484.33,1655.81 1470.73,1644.15 1456.64,1633.46 1441.58,1623.26 1427,1613.54 1411.45,1604.31 1395.91,1596.05 1379.87,1588.28 1363.35,1580.99 1346.83,1574.67 1329.83,1569.33 1312.82,1564.47 1289.5,1559.13 1266.18,1555.24 1242.86,1553.3 1220.02,1552.81 "/>
   <polygon class="fil1" points="1733.58,1461.95 1735.04,1471.67 1735.04,1481.39 1734.07,1491.11 1732.12,1500.34 1729.21,1509.57 1725.81,1518.31 1720.95,1526.57 1715.6,1534.35 1709.29,1541.64 1702.48,1548.92 1695.2,1554.75 1686.94,1560.59 1677.71,1565.44 1668.48,1569.82 1658.76,1572.73 1648.07,1575.16 1637.38,1576.62 1627.18,1577.1 1616.97,1576.62 1606.77,1575.16 1597.05,1572.73 1587.82,1569.33 1579.08,1565.44 1570.33,1560.59 1562.56,1555.24 1555.27,1548.92 1548.95,1542.12 1543.12,1534.35 1538.26,1526.57 1533.89,1517.83 1530.49,1508.6 1528.55,1498.88 1527.09,1489.16 1527.09,1479.45 1528.06,1470.21 1529.52,1460.98 1532.43,1451.75 1536.32,1443 1540.69,1434.75 1546.52,1426.49 1552.35,1419.2 1559.64,1412.4 1566.93,1406.08 1575.19,1400.74 1583.94,1395.39 1593.65,1391.5 1603.37,1388.1 1614.06,1385.67 1624.26,1384.22 1634.95,1384.22 1645.15,1384.7 1655.36,1386.16 1665.07,1388.59 1674.31,1391.5 1683.05,1395.88 1691.31,1400.25 1699.57,1406.08 1706.37,1412.4 1713.17,1419.2 1719.01,1426.49 1723.86,1434.75 1728.24,1443.49 1731.64,1452.24 "/>
   <polyline class="fil2 str1" points="1733.58,1461.95 1735.04,1471.67 1735.04,1481.39 1734.07,1491.11 1732.12,1500.34 1729.21,1509.57 1725.81,1518.31 1720.95,1526.57 1715.6,1534.35 1709.29,1541.64 1702.48,1548.92 1695.2,1554.75 1686.94,1560.59 1677.71,1565.44 1668.48,1569.82 1658.76,1572.73 1648.07,1575.16 1637.38,1576.62 1627.18,1577.1 1616.97,1576.62 1606.77,1575.16 1597.05,1572.73 1587.82,1569.33 1579.08,1565.44 1570.33,1560.59 1562.56,1555.24 1555.27,1548.92 1548.95,1542.12 1543.12,1534.35 1538.26,1526.57 1533.89,1517.83 1530.49,1508.6 1528.55,1498.88 1527.09,1489.16 1527.09,1479.45 1528.06,1470.21 1529.52,1460.98 1532.43,1451.75 1536.32,1443 1540.69,1434.75 1546.52,1426.49 1552.35,1419.2 1559.64,1412.4 1566.93,1406.08 1575.19,1400.74 1583.94,1395.39 1593.65,1391.5 1603.37,1388.1 1614.06,1385.67 1624.26,1384.22 1634.95,1384.22 1645.15,1384.7 1655.36,1386.16 1665.07,1388.59 1674.31,1391.5 1683.05,1395.88 1691.31,1400.25 1699.57,1406.08 1706.37,1412.4 1713.17,1419.2 1719.01,1426.49 1723.86,1434.75 1728.24,1443.49 1731.64,1452.24 1733.58,1461.95 "/>
   <polygon class="fil3" points="1299.71,1737.92 1299.71,1730.64 1300.68,1723.83 1302.62,1717.03 1304.56,1710.23 1307.48,1704.4 1310.88,1698.57 1314.28,1693.22 1318.65,1688.37 1323.03,1683.51 1328.37,1679.62 1333.72,1676.22 1339.55,1673.3 1345.38,1670.88 1351.69,1668.93 1358.01,1667.96 1364.81,1667.96 1371.61,1667.96 1377.93,1668.93 1384.25,1670.88 1390.08,1673.3 1395.91,1676.22 1401.25,1679.62 1406.59,1683.51 1410.97,1688.37 1415.34,1693.22 1419.23,1698.57 1422.14,1704.4 1425.06,1710.23 1427,1717.03 1428.94,1723.83 1429.92,1730.64 1430.4,1737.92 1429.92,1744.73 1428.94,1752.02 1427,1758.33 1425.06,1765.13 1422.14,1770.96 1419.23,1776.79 1415.34,1782.14 1410.97,1787 1406.59,1791.85 1401.25,1795.74 1395.91,1799.14 1390.08,1802.06 1384.25,1804.49 1377.93,1806.43 1371.61,1807.4 1364.81,1807.89 1358.01,1807.4 1351.69,1806.43 1345.38,1804.49 1339.55,1802.06 1333.72,1799.14 1328.37,1795.74 1323.03,1791.85 1318.65,1787 1314.28,1782.14 1310.88,1776.79 1307.48,1770.96 1304.56,1765.13 1302.62,1758.33 1300.68,1752.02 1299.71,1744.73 "/>
   <polygon class="fil3" points="1151.52,2040.13 1151.03,2029.93 1151.03,2019.24 1151.52,2009.04 1152.49,1998.83 1153.95,1988.63 1155.89,1978.91 1158.81,1969.2 1161.72,1959.48 1169.49,1941.01 1178.73,1923.04 1189.9,1906.52 1203.02,1890.97 1217.11,1876.4 1233.14,1863.28 1250.15,1851.62 1268.12,1840.93 1287.56,1832.67 1308.45,1825.87 1318.65,1822.95 1329.83,1820.52 1340.52,1819.06 1351.69,1817.61 1362.87,1817.12 1374.04,1816.63 1385.22,1817.12 1395.91,1818.09 1407.08,1819.55 1417.28,1821.01 1438.18,1826.35 1458.1,1833.15 1476.56,1841.9 1494.54,1852.1 1511.06,1863.76 1526.6,1876.88 1540.69,1891.46 1552.84,1907.49 1563.53,1924.01 1572.76,1942.47 1576.65,1951.7 1579.56,1961.42 1582.48,1971.14 1584.91,1981.34 1586.36,1991.54 1587.82,2001.75 1578.1,1992.52 1567.9,1983.28 1557.7,1975.03 1547.01,1967.25 1535.84,1959.96 1524.66,1953.16 1513,1947.33 1500.85,1941.99 1488.71,1936.64 1476.56,1932.76 1463.93,1928.87 1451.29,1925.47 1438.66,1923.04 1425.54,1921.09 1412.43,1919.64 1399.31,1918.67 1386.19,1918.18 1373.07,1918.67 1359.95,1919.64 1346.83,1921.09 1334.2,1923.04 1321.08,1925.47 1308.45,1928.87 1295.82,1932.76 1283.19,1937.13 1270.55,1941.99 1258.41,1947.82 1246.75,1953.65 1235.09,1960.45 1223.42,1968.22 1212.25,1976 1201.56,1984.74 1187.47,1997.38 1174.35,2010.98 1162.69,2025.07 "/>
   <path class="fil4 str2" d="M754.08 1688.85l0.97 -25.75 2.43 -25.26 3.4 -25.27 5.35 -24.29 6.31 -24.29 7.78 -23.81 8.74 -22.84 10.21 -22.83 11.66 -21.87 12.14 -21.37 14.09 -20.9 14.58 -20.4 16.03 -19.44 17.01 -18.46 17.49 -17.98 18.95 -17.49 19.92 -16.52 20.4 -15.55 21.38 -14.57 22.35 -13.6 22.84 -13.12 23.8 -11.67 24.3 -10.68 24.78 -10.21 25.75 -8.74 26.23 -7.78 26.73 -6.8 27.69 -5.34 27.7 -4.38 28.18 -2.91 28.66 -1.94 29.15 -0.98 28.67 0.98 28.66 1.94 28.18 2.91 28.19 4.38 27.2 5.34 26.73 6.8 26.23 7.78 25.75 8.74 24.78 10.21 24.78 10.68 23.32 11.67 23.32 13.12 21.87 13.6 21.38 14.57 20.89 15.55 19.43 16.52 18.95 17.49 17.98 17.98 16.52 18.46 16.03 19.44 14.58 20.4 14.09 20.9 12.63 21.37 11.17 21.87 10.21 22.83 9.23 22.84 7.77 23.81 6.32 24.29 4.86 24.29 3.88 25.27 1.95 25.26 0.97 25.75 -0.97 25.27 -1.95 25.75 -3.88 24.78 -4.86 24.78 -6.32 23.8 -7.77 23.81 -9.23 23.32 -10.21 22.35 -11.17 22.35 -12.63 21.38 -14.09 20.89 -14.58 19.92 -16.03 19.44 -16.52 18.95 -17.98 17.97 -18.95 17.01 -19.43 16.52 -20.89 15.54 -21.38 14.58 -21.87 13.6 -23.32 13.12 -23.32 11.66 -24.78 11.18 -24.78 9.71 -25.75 8.75 -26.23 7.77 -26.73 6.81 -27.2 5.34 -28.19 4.37 -28.18 2.92 -28.66 1.94 -28.67 0.97 -29.15 -0.97 -28.66 -1.94 -28.18 -2.92 -27.7 -4.37 -27.69 -5.34 -26.73 -6.81 -26.23 -7.77 -25.75 -8.75 -24.78 -9.71 -24.3 -11.18 -23.8 -11.66 -22.84 -13.12 -22.35 -13.6 -21.38 -14.58 -20.4 -15.54 -19.92 -16.52 -18.95 -17.01 -17.49 -17.97 -17.01 -18.95 -16.03 -19.44 -14.58 -19.92 -14.09 -20.89 -12.14 -21.38 -11.66 -22.35 -10.21 -22.35 -8.74 -23.32 -7.78 -23.81 -6.31 -23.8 -5.35 -24.78 -3.4 -24.78 -2.43 -25.75 -0.97 -25.27zm8.26 25.27l2.43 24.77 3.4 24.3 5.35 24.29 5.83 23.81 7.77 23.32 8.75 22.84 10.2 22.35 11.17 21.37 12.64 21.38 13.11 20.41 14.58 19.92 16.03 18.95 16.52 18.46 17.49 17.98 18.47 16.52 19.43 16.52 20.41 15.06 20.89 14.57 22.35 13.61 22.35 12.63 23.32 11.66 24.29 10.69 24.78 9.72 25.27 8.74 25.75 7.78 26.72 6.8 26.72 5.34 27.7 4.38 27.69 2.91 28.67 1.94 28.66 0.49 28.67 -0.49 28.18 -1.94 27.69 -2.91 27.7 -4.38 26.72 -5.34 26.72 -6.8 25.75 -7.78 25.27 -8.74 24.78 -9.72 24.29 -10.69 23.32 -11.66 22.84 -12.63 21.86 -13.61 20.89 -14.57 20.41 -15.06 19.43 -16.52 18.47 -16.52 17.49 -17.98 17 -18.46 15.55 -18.95 14.58 -19.92 13.6 -20.41 12.15 -21.38 11.17 -21.37 10.21 -22.35 8.74 -22.84 7.77 -23.32 6.32 -23.81 4.86 -24.29 3.4 -24.3 2.43 -24.77 0.49 -25.27 -0.49 -25.26 -2.43 -25.27 -3.4 -24.29 -4.86 -24.29 -6.32 -23.81 -7.77 -23.32 -8.74 -22.35 -10.21 -22.35 -11.17 -21.87 -12.15 -20.89 -13.6 -20.89 -14.58 -19.43 -15.55 -19.44 -17 -18.46 -17.49 -17.49 -18.47 -17.01 -19.43 -16.03 -20.41 -15.55 -20.89 -14.57 -21.86 -13.61 -22.84 -12.63 -23.32 -11.66 -24.29 -10.69 -24.78 -9.72 -25.27 -8.74 -25.75 -7.78 -26.72 -6.31 -26.72 -5.84 -27.7 -3.88 -27.69 -3.4 -28.18 -1.95 -28.67 -0.48 -28.66 0.48 -28.67 1.95 -27.69 3.4 -27.7 3.88 -26.72 5.84 -26.72 6.31 -25.75 7.78 -25.27 8.74 -24.78 9.72 -24.29 10.69 -23.32 11.66 -22.35 12.63 -22.35 13.61 -20.89 14.57 -20.41 15.55 -19.43 16.03 -18.47 17.01 -17.49 17.49 -16.52 18.46 -16.03 19.44 -14.58 19.43 -13.11 20.89 -12.64 20.89 -11.17 21.87 -10.2 22.35 -8.75 22.35 -7.77 23.32 -5.83 23.81 -5.35 24.29 -3.4 24.29 -2.43 25.27 -0.49 25.26 0.49 25.27zm6.8 -25.27l0.98 -24.78 1.94 -24.78 3.89 -23.8 4.85 -23.81 5.83 -23.32 7.78 -22.84 8.26 -22.35 10.2 -22.35 11.18 -20.89 12.14 -20.89 13.12 -20.41 14.58 -19.43 15.06 -18.95 16.52 -17.98 17.49 -17.49 17.98 -17 19.43 -15.55 19.92 -15.55 20.89 -14.09 21.38 -13.6 22.35 -12.15 23.32 -11.66 23.81 -10.69 24.29 -9.72 25.27 -8.74 25.26 -7.29 26.24 -6.32 26.72 -5.34 27.21 -4.37 27.69 -2.92 27.7 -1.94 28.66 -0.97 28.18 0.97 28.18 1.94 27.21 2.92 27.21 4.37 26.72 5.34 26.24 6.32 25.75 7.29 24.78 8.74 24.29 9.72 23.81 10.69 23.32 11.66 22.35 12.15 21.38 13.6 20.89 14.09 20.41 15.55 18.95 15.55 18.46 17 17 17.49 16.52 17.98 15.55 18.95 14.09 19.43 13.6 20.41 12.15 20.89 10.69 20.89 10.2 22.35 8.75 22.35 7.29 22.84 6.31 23.32 4.86 23.81 3.4 23.8 1.95 24.78 0.97 24.78 -0.97 24.78 -1.95 24.29 -3.4 24.3 -4.86 23.8 -6.31 23.33 -7.29 22.83 -8.75 22.35 -10.2 21.87 -10.69 21.37 -12.15 20.9 -13.6 19.92 -14.09 19.43 -15.55 18.95 -16.52 18.46 -17 17.01 -18.46 17 -18.95 16.04 -20.41 15.06 -20.89 14.09 -21.38 13.6 -22.35 12.63 -23.32 11.18 -23.81 10.69 -24.29 9.71 -24.78 8.75 -25.75 7.29 -26.24 6.8 -26.72 5.35 -27.21 3.88 -27.21 3.4 -28.18 1.95 -28.18 0.48 -28.66 -0.48 -27.7 -1.95 -27.69 -3.4 -27.21 -3.88 -26.72 -5.35 -26.24 -6.8 -25.26 -7.29 -25.27 -8.75 -24.29 -9.71 -23.81 -10.69 -23.32 -11.18 -22.35 -12.63 -21.38 -13.6 -20.89 -14.09 -19.92 -15.06 -19.43 -16.04 -17.98 -17 -17.49 -17.01 -16.52 -18.46 -15.06 -18.95 -14.58 -19.43 -13.12 -19.92 -12.14 -20.9 -11.18 -21.37 -10.2 -21.87 -8.26 -22.35 -7.78 -22.83 -5.83 -23.33 -4.85 -23.8 -3.89 -24.3 -1.94 -24.29 -0.98 -24.78zm23.32 23.32l1.95 23.33 3.4 22.83 4.86 22.35 5.83 22.35 6.8 21.38 8.26 21.38 9.23 20.89 10.69 19.92 11.66 19.92 12.63 19.43 13.61 18.47 14.57 17.97 16.04 17.49 16.52 16.52 17.49 16.04 17.97 15.06 19.44 14.57 19.92 13.61 20.89 13.12 21.38 12.14 22.35 11.18 22.83 10.2 23.32 9.23 24.3 8.26 24.29 7.29 25.27 6.32 25.75 4.85 26.23 4.38 26.73 2.91 26.72 1.46 27.69 0.97 27.21 -0.97 27.21 -1.46 26.24 -2.91 26.23 -4.38 25.75 -4.85 25.27 -6.32 24.78 -7.29 23.81 -8.26 23.8 -9.23 22.84 -10.2 21.86 -11.18 21.87 -12.14 20.4 -13.12 19.92 -13.61 19.44 -14.57 18.46 -15.06 17.49 -16.04 16.52 -16.52 15.55 -17.49 14.57 -17.97 13.61 -18.47 12.63 -19.43 11.66 -19.92 10.69 -19.92 9.23 -20.89 8.26 -21.38 7.29 -21.38 5.83 -22.35 4.37 -22.35 3.4 -22.83 1.95 -23.33 0.97 -23.32 -0.97 -23.81 -1.95 -22.83 -3.4 -22.84 -4.37 -22.83 -5.83 -21.87 -7.29 -21.86 -8.26 -21.38 -9.23 -20.4 -10.69 -20.41 -11.66 -19.92 -12.63 -18.95 -13.61 -18.95 -14.57 -17.97 -15.55 -17.01 -16.52 -17 -17.49 -16.04 -18.46 -15.06 -19.44 -14.58 -19.92 -13.6 -20.4 -13.12 -21.87 -11.66 -21.86 -11.17 -22.84 -10.21 -23.8 -9.23 -23.81 -8.74 -24.78 -6.81 -25.27 -6.31 -25.75 -5.35 -26.23 -3.88 -26.24 -2.92 -27.21 -1.94 -27.21 -0.49 -27.69 0.49 -26.72 1.94 -26.73 2.92 -26.23 3.88 -25.75 5.35 -25.27 6.31 -24.29 6.81 -24.3 8.74 -23.32 9.23 -22.83 10.21 -22.35 11.17 -21.38 11.66 -20.89 13.12 -19.92 13.6 -19.44 14.58 -17.97 15.06 -17.49 16.04 -16.52 17 -16.04 17.01 -14.57 17.97 -13.61 18.95 -12.63 18.95 -11.66 19.92 -10.69 20.41 -9.23 20.4 -8.26 21.38 -6.8 21.86 -5.83 21.87 -4.86 22.83 -3.4 22.84 -1.95 22.83 -0.48 23.81 0.48 23.32z"/>
  </g>
  <polygon class="fil1" points="1349.67,1105.34 1349.67,1101.84 1350.17,1097.85 1351.17,1094.35 1353.17,1090.85 1356.16,1088.35 1359.16,1085.86 1362.66,1083.86 1367.16,1082.86 1371.15,1082.36 1375.15,1082.86 1379.15,1083.86 1382.64,1085.86 1385.64,1087.85 1388.14,1090.85 1389.64,1094.35 1391.14,1097.85 1391.14,1101.84 1390.64,1105.84 1389.14,1109.34 1387.14,1112.83 1384.64,1115.33 1381.64,1117.83 1377.65,1119.83 1373.65,1120.83 1369.65,1121.33 1365.66,1120.83 1361.66,1119.83 1358.16,1117.83 1355.16,1115.33 1352.67,1112.83 1350.67,1109.34 "/>
  <path class="fil5" d="M957.08 1023.18l-0.17 0c-31.3,0 -83.57,11.65 -84.57,33.13 -0.83,18.47 32.3,28.13 56.94,36.79 18.81,6.49 46.94,11.98 46.61,21.3 -0.33,9.33 -26.64,13.16 -36.79,12.82 -28.8,-1.16 -49.94,-15.48 -49.94,-15.48 -3.67,-2.33 -4.5,0.83 -4.5,0.83 0,0 18.31,19.48 54.27,20.48 32.8,1 44.78,-12.32 45.12,-17.98 0.66,-12.48 -26.8,-18.48 -45.95,-24.97 -24.97,-8.66 -59.76,-19.14 -59.43,-34.13 0.33,-9.99 38.45,-27.13 74.25,-26.47 30.46,0.5 32.79,10.82 32.46,13.99 -1.33,10.49 -17.48,13.98 -20.81,13.32 -2.33,-1.17 -4.99,4.49 0,4.99 7.66,1.66 27.3,-6.66 27.97,-18.65 0.83,-14.81 -20.48,-19.97 -35.46,-19.97zm85.4 85.4c3.66,-6.49 1,-10.32 -0.5,-7.66 -3.83,6.99 -9.82,20.81 -20.81,19.64 -4.33,-0.49 -5.66,-5.32 -5.66,-10.32 0.33,-5.99 0.33,-9.82 0.67,-11.65 0.66,-2.66 2.33,-4.33 -1.34,-5.33 -1.99,-0.5 -3.49,0.5 -4.16,3.33 -0.66,2.67 -1.16,5.16 -1.83,7.83 -1,3.99 -5.83,15.48 -10.15,14.98 -6.33,-0.83 -3,-16.15 -1.34,-21.81 1,-3.33 2.67,-5.99 -0.33,-6.82 -3.66,-1.17 -4.33,1.49 -4.49,2.49 -0.5,1.67 -2.67,7.99 -3.67,14.82 -0.99,6.82 1.84,16.31 8.66,16.98 8.32,0.67 12.49,-12.15 12.49,-12.15 0,0 1.83,12.65 12.82,12.48 8.65,-0.16 16.31,-10.99 19.64,-16.81zm9.16 -8.66c2.16,0 2.16,-2.66 3.99,-1.16 1,1 -1.83,3.83 -1.33,11.48 0,3.17 0.67,15.98 13.15,16.65 11.49,0.67 19.64,-15.98 20.98,-18.31 3.33,-6.66 0.83,-10.32 -0.5,-7.66 -4,6.99 -11.49,20.48 -19.48,20.48 -6.66,0 -7.49,-5.83 -7.33,-12.99 0,-7.16 2.17,-6.99 2.5,-10.82 0,-0.5 0.83,-4.66 -1.5,-5.99 -3.83,-2.17 -7.32,0.5 -8.32,1 -0.5,0.16 -1.66,0.66 -2.33,-0.17 -0.83,-0.83 0.83,-2.5 0.83,-3.99 0.17,-1.17 -1.16,-5.16 -3.66,-5.33 -3,-0.33 -4.66,5.66 -4.66,10.99 0,3.33 0.33,2.99 -0.34,3.99 -1.66,2.66 -2.16,4 -3.16,5.83 -1.5,2.99 1,6.16 2,4.66 2.33,-4 3.83,-6.33 4.66,-8.16 0.67,-1.5 2.33,-0.5 4.5,-0.5zm45.94 0c2.17,0 2.17,-2.66 4,-1.16 1,1 -1.83,3.83 -1.33,11.48 0,3.17 0.66,15.98 13.15,16.65 11.49,0.67 19.64,-15.98 20.97,-18.31 3.33,-6.66 0.84,-10.32 -0.5,-7.66 -3.99,6.99 -11.48,20.48 -19.47,20.48 -6.66,0 -7.49,-5.83 -7.33,-12.99 0,-7.16 2.17,-6.99 2.5,-10.82 0,-0.5 0.83,-4.66 -1.5,-5.99 -3.83,-2.17 -7.32,0.5 -8.32,1 -0.5,0.16 -1.67,0.66 -2.33,-0.17 -0.84,-0.83 0.83,-2.5 0.83,-3.99 0.17,-1.17 -1.17,-5.16 -3.66,-5.33 -3,-0.33 -4.66,5.66 -4.66,10.99 0,3.33 0.33,2.99 -0.34,3.99 -1.66,2.66 -2.16,4 -3.16,5.83 -1.5,2.99 1,6.16 2,4.66 2.33,-4 3.83,-6.33 4.66,-8.16 0.66,-1.5 2.33,-0.5 4.49,-0.5zm36.96 13.65c0.17,-3.33 3,-10.65 4.83,-11.98 1.83,4.99 5.32,9.15 9.99,11.82 -1.5,5.16 -5.16,10.98 -9.33,10.65 -5.49,-0.33 -5.66,-6.83 -5.49,-10.49zm15.81 -6.32c-3.16,-2 -5.49,-4.66 -6.32,-7.49 -1,-2.83 -0.67,-6.83 2.16,-7 4,-0.33 4.33,8.49 4.16,14.49zm21.31 -3.66c-3.83,7.49 -10.65,8.15 -16.14,5.99 0.16,-1 0.33,-2 0.33,-3 1.16,-14.48 -5.83,-19.81 -10.16,-19.48 -4.49,0.34 -6.82,3 -7.49,6.33 -5.49,0.83 -8.82,13.65 -9.32,19.64 -0.5,6 1.67,15.32 9.66,15.82 8.32,0.5 13.31,-6.33 15.64,-13.82 12.49,2.83 19.32,-4.66 21.15,-10.15 1.16,-4.17 -0.84,-6.33 -2,-4.17l-1.67 2.84zm21.31 -0.67c0,0 -6.49,22.14 -14.65,21.97 -4.33,0 -2.99,-8.82 -1.83,-14.98 1,-5.99 6.5,-16.65 11.32,-15.65 3.66,0.67 3,7.33 3.5,8.66 0.16,0.67 1.66,0 1.66,0zm-1.5 40.45c0,8.33 -0.16,17.98 -0.83,27.47 -0.83,14.48 -6.49,29.47 -13.32,28.13 -4.82,-0.99 -3.33,-10.98 -3.33,-13.98 0,-8.66 7.33,-28.13 17.48,-41.62zm-0.99 -22.97c0,0 0.5,6.49 0.83,16.15 -9.66,10.65 -20.64,30.3 -22.64,49.11 -1.17,12.15 3.33,17.81 8.49,17.64 14.15,-0.66 19.64,-22.64 19.97,-35.12 0.34,-8.83 -0.33,-20.31 -0.66,-30.8 2.33,-2.33 4.66,-4.33 6.99,-5.66 1.17,-0.17 0.17,-4.16 -0.66,-3.66 -1.84,0.16 -4,1.33 -6.5,3.33 -0.16,-9.16 -0.16,-17.15 0.83,-21.31 2.5,-9.49 4.83,-16.82 5,-17.15 1.5,-2.83 -4,-3.99 -5.16,-1.66l-2 3.82c0,0 -2,-4.66 -7.82,-5.49 -7.5,-1.16 -12.99,7.49 -16.15,17.15 -3.5,10.32 -3,20.47 6.49,22.64 7.49,1.66 12.99,-8.99 12.99,-8.99zm67.75 -12.15c3.5,-6.5 1.17,-10.32 -0.33,-7.66 -8.82,16.15 -15.32,21.31 -20.31,21.31 -11.15,0 -5.16,-17.82 -5,-17.82 0.34,-2.66 -5.82,-3.99 -6.15,-2.33 -0.67,4.17 -5.83,20.81 -11.99,20.81 -4,0 -5.16,-7.82 -3.33,-15.48 1.66,-7.49 6.49,-14.82 11.32,-14.65 5.66,0.17 4.66,7.16 4.66,7.16 1.17,0.5 2.83,1.66 4.16,-2.66 0.17,-0.84 1,-9.16 -8.65,-9.49 -5.33,-0.17 -15.82,6.82 -17.82,22.47 -1.99,15.65 6,18.48 9.16,18.48 5.83,0.16 11.82,-10.82 11.82,-10.82 0,0 1.5,10.15 11.49,9.99 9.82,-0.17 18.14,-13.99 20.97,-19.31zm41.45 -0.17c3.33,-6.66 1,-10.15 -0.49,-7.33 -4,7 -11.16,23.31 -26.47,23.14 -9.66,-0.16 -12.49,-4.66 -12.16,-14.64 0.34,-10.16 6.83,-18.82 13.15,-18.48 4.5,0.33 3.17,6.16 0.67,9.32 -1,1.33 -1.5,3.83 -0.67,4.49 1.67,1.17 3.5,0 4.5,-0.99 1.83,-1.84 4.49,-4.33 4.49,-9.49 0,-4.83 -3.16,-8.33 -8.82,-8.49 -12.32,-0.5 -19.64,14.48 -19.98,25.3 -0.5,10.99 7.5,18.31 17.98,17.98 18.65,-0.67 27.31,-19.64 27.8,-20.81zm-3.82 62.07c0.5,-15.87 11.98,-27.39 20.14,-33.58 -0.67,9.02 -0.67,18.2 -2.83,27.22 -0.67,3 -2.33,19.04 -11.82,19.04 -6.66,0 -5.66,-9.69 -5.49,-12.68zm25.96 -47.42c0.17,-5.8 4.5,-20.37 5.83,-25.33 1.67,-4.64 -0.33,-6.8 -1.83,-7.3 -2.5,-0.83 -5.82,2.5 -7.16,12.43 -2.99,7.96 -8.49,19.87 -14.81,20.2 -2.5,0.16 -2.67,-4.47 -2.67,-9.27 0,-4.8 2.5,-13.9 2.5,-13.9 0.17,0 1.5,-4.33 -1.33,-5.3 -3,-1.16 -5.83,7.11 -6.83,16.87 -0.83,9.46 2.83,15.43 8.99,15.59 5.5,0.17 9.49,-5.63 13.32,-12.76 -0.5,5.63 -1,11.6 -1.33,16.43 -7.66,5.52 -22.98,19.03 -26.14,42.09 -0.83,6.52 2.67,16.01 11.16,16.34 14.15,0.5 17.64,-21.86 18.14,-33.88 0.34,-6.02 0,-12.68 0.67,-18.37 0,-0.99 0.16,-1.99 0.33,-3.02 2,-1.5 3.33,-2.16 3.33,-2.16 0,0 3.16,-1.34 1.83,-2.5 -1.16,-1.17 -2.83,-2.17 -4.49,-1.5 0.33,-1.83 0.49,-3.33 0.49,-4.66z"/>
  <path class="fil6" d="M1434.13 1036.23c-21.63,5.49 -35.61,13.14 -35.95,13.31 -1.66,0.83 -1.83,2.33 -1.83,2.33 0,0.83 0,3.83 0,4.49 0,0.17 0.17,1.33 2,0.34 0.17,0 11.98,-7.99 34.45,-13.65 -2.33,10.65 -5.99,28.79 -8.16,45.1 -3.32,24.8 -2.33,43.93 -2.33,43.93 0.17,2.33 7.33,6.16 7.33,2.33 0,-0.83 -2.17,-14.47 2.99,-51.42 2.5,-17.14 5,-32.62 6.66,-41.44 10.82,-2.33 23.8,-3.99 38.78,-3.99 17.3,0 27.29,5.66 26.96,13.31 -1.34,26.96 -50.1,42.44 -69.57,39.11 -0.16,0 -3.33,-0.67 -1.83,2.33 34.28,31.12 72.06,49.59 73.39,50.26 2.33,1.16 6.66,-2.83 4.5,-3.66 -0.17,0 -30.63,-16.64 -63.58,-42.94 0,0 58.92,-8.82 63.91,-42.1 1.33,-9.16 -10.65,-22.97 -36.78,-22.8 -12.48,0 -24.13,1.49 -34.45,3.66l0.17 -0.83c-2.17,-2.83 -4.5,-6.16 -6.16,0 0,0.16 -0.17,0.99 -0.5,2.33zm86.71 72.22c-1.5,4 -2,6.99 -7.49,13.15 -2.17,-9.49 4.66,-25.46 7.99,-24.96 2.99,0.66 1.49,6.65 -0.5,11.81zm1.83 19.64c-2.83,0 -5.49,-1 -6.99,-2.33 2.33,-2.83 6.99,-8.49 9.65,-15.31 2.33,-5.99 6.16,-13.98 -0.67,-18.47 -9.15,-5.66 -17.14,12.15 -17.47,20.97 -0.33,8.82 1.5,20.8 16.64,21.13 12.65,0.17 21.3,-17.47 22.47,-19.8 3.49,-6.66 1.33,-10.49 -0.17,-7.82 -4.16,6.99 -11.48,21.63 -23.46,21.63zm34.45 7.82c3.99,0.17 15.14,-5.32 17.47,-20.63 0.5,-3.17 3.16,-20.31 -6.99,-21.64 -13.31,-1.66 -19.14,22.47 -19.14,22.63 1.5,-34.11 9.99,-65.07 9.82,-65.07 1,-3.66 -5.16,-9.48 -7.99,-3.66 -3.82,40.61 -7.48,62.91 -7.48,62.91 0,0 -2.5,14.31 0.16,20.8 2.5,6.16 6.16,1.83 6.16,1.67 0,0.16 3.99,2.83 7.99,2.99zm8.65 -36.61c10.48,-0.67 3,30.45 -9.15,31.12 -4.83,0.17 -5.99,-4.49 -5.99,-4.66 0,0 5.32,-25.96 15.14,-26.46zm18.47 20.3c0.17,-3.33 3,-10.65 4.83,-11.98 1.83,4.99 5.33,9.15 9.98,11.82 -1.49,5.16 -5.15,10.98 -9.31,10.65 -5.5,-0.34 -5.66,-6.83 -5.5,-10.49zm15.81 -6.32c-3.16,-2 -5.49,-4.66 -6.32,-7.49 -1,-2.83 -0.67,-6.82 2.16,-6.99 4,-0.33 4.33,8.49 4.16,14.48zm21.31 -3.66c-3.83,7.49 -10.66,8.15 -16.15,5.99 0.17,-1 0.34,-2 0.34,-3 1.16,-14.48 -5.83,-19.8 -10.16,-19.47 -4.49,0.33 -6.82,3 -7.49,6.33 -5.49,0.83 -8.82,13.64 -9.32,19.63 -0.49,5.99 1.67,15.31 9.66,15.81 8.32,0.5 13.31,-6.32 15.64,-13.81 12.48,2.83 19.31,-4.66 21.14,-10.15 1.16,-4.16 -0.84,-6.33 -2,-4.16l-1.66 2.83zm11.15 -3.66c2.16,0 2.16,-2.67 3.99,-1.17 1,1 -1.83,3.83 -1.33,11.48 0,3.17 0.67,15.98 13.15,16.65 11.48,0.66 19.63,-15.98 20.97,-18.31 3.32,-6.66 0.83,-10.32 -0.5,-7.66 -4,6.99 -11.49,20.47 -19.47,20.47 -6.66,0 -7.49,-5.82 -7.33,-12.98 0,-7.15 2.17,-6.99 2.5,-10.81 0,-0.5 0.83,-4.66 -1.5,-5.99 -3.83,-2.17 -7.32,0.49 -8.32,0.99 -0.5,0.17 -1.66,0.67 -2.33,-0.16 -0.83,-0.83 0.83,-2.5 0.83,-4 0.17,-1.16 -1.16,-5.16 -3.66,-5.32 -2.99,-0.34 -4.66,5.66 -4.66,10.98 0,3.33 0.33,3 -0.33,4 -1.67,2.66 -2.17,3.99 -3.16,5.82 -1.5,3 0.99,6.16 1.99,4.66 2.33,-3.99 3.83,-6.32 4.66,-8.15 0.67,-1.5 2.33,-0.5 4.5,-0.5zm41.6 7.65c-0.5,6.66 -2.33,17.31 4.16,17.81 8.32,0.5 12.32,-20.3 13.65,-19.97 2.5,0.66 -4.33,21.13 12.81,21.63 12.49,0.5 20.81,-16.14 21.97,-18.47 3.33,-6.66 1.17,-10.48 -0.33,-7.82 -3.83,6.99 -11.48,21.97 -21.64,21.13 -13.14,-0.99 -2.99,-24.96 -5.32,-27.46 -2.66,-3.16 -6.33,-3.49 -7.82,0.17 -1.67,3.66 -9.16,24.46 -11.65,23.97 -3.33,-0.84 1.5,-12.65 -1.17,-19.81 -2.16,-5.66 -6.32,-3.99 -7.99,-1 -1.66,2.67 -2.66,4.33 -3.66,6.16 -1.49,3 1.17,5.66 2.33,4.33 2.17,-4 3.33,-6.66 3.83,-6.66 1.17,0 1.17,2.5 0.83,5.99z"/>
  <path class="fil6" d="M1438.3 1034.14c-21.64,5.49 -35.62,13.15 -35.95,13.32 -1.67,0.83 -1.83,2.33 -1.83,2.33 0,0.83 0,3.82 0,4.49 0,0.17 0.16,1.33 2,0.33 0.16,0 11.98,-7.99 34.45,-13.64 -2.33,10.65 -6,28.79 -8.16,45.1 -3.33,24.79 -2.33,43.93 -2.33,43.93 0.17,2.33 7.32,6.16 7.32,2.33 0,-0.83 -2.16,-14.48 3,-51.42 2.5,-17.14 4.99,-32.62 6.66,-41.44 10.81,-2.33 23.79,-4 38.77,-4 17.31,0 27.3,5.66 26.96,13.32 -1.33,26.96 -50.09,42.43 -69.56,39.11 -0.17,0 -3.33,-0.67 -1.83,2.33 34.28,31.12 72.06,49.59 73.39,50.26 2.33,1.16 6.66,-2.83 4.49,-3.67 -0.16,0 -30.62,-16.64 -63.57,-42.93 0,0 58.91,-8.82 63.91,-42.11 1.33,-9.15 -10.66,-22.96 -36.78,-22.8 -12.49,0 -24.13,1.5 -34.45,3.67l0.16 -0.84c-2.16,-2.83 -4.49,-6.15 -6.15,0 0,0.17 -0.17,1 -0.5,2.33zm86.7 72.23c-1.49,3.99 -1.99,6.99 -7.49,13.15 -2.16,-9.49 4.66,-25.47 7.99,-24.97 3,0.67 1.5,6.66 -0.5,11.82zm1.83 19.64c-2.83,0 -5.49,-1 -6.99,-2.33 2.33,-2.83 6.99,-8.49 9.66,-15.31 2.33,-5.99 6.15,-13.98 -0.67,-18.48 -9.15,-5.65 -17.14,12.15 -17.47,20.97 -0.34,8.82 1.49,20.81 16.64,21.14 12.65,0.16 21.3,-17.48 22.47,-19.81 3.49,-6.65 1.33,-10.48 -0.17,-7.82 -4.16,6.99 -11.48,21.64 -23.47,21.64zm34.45 7.82c4,0.17 15.15,-5.33 17.48,-20.64 0.5,-3.16 3.16,-20.3 -6.99,-21.63 -13.32,-1.67 -19.14,22.46 -19.14,22.63 1.5,-34.11 9.99,-65.07 9.82,-65.07 1,-3.66 -5.16,-9.49 -7.99,-3.66 -3.83,40.61 -7.49,62.91 -7.49,62.91 0,0 -2.5,14.31 0.17,20.8 2.49,6.16 6.16,1.83 6.16,1.66 0,0.17 3.99,2.83 7.98,3zm8.66 -36.61c10.48,-0.67 2.99,30.45 -9.16,31.12 -4.82,0.16 -5.99,-4.5 -5.99,-4.66 0,0 5.33,-25.96 15.15,-26.46zm18.47 20.3c0.17,-3.33 3,-10.65 4.83,-11.98 1.83,4.99 5.32,9.15 9.98,11.81 -1.5,5.16 -5.16,10.99 -9.32,10.65 -5.49,-0.33 -5.66,-6.82 -5.49,-10.48zm15.81 -6.32c-3.16,-2 -5.49,-4.66 -6.32,-7.49 -1,-2.83 -0.67,-6.83 2.16,-6.99 3.99,-0.34 4.33,8.48 4.16,14.48zm21.3 -3.67c-3.83,7.49 -10.65,8.16 -16.14,6 0.17,-1 0.33,-2 0.33,-3 1.17,-14.48 -5.82,-19.8 -10.15,-19.47 -4.49,0.33 -6.82,2.99 -7.49,6.32 -5.49,0.83 -8.82,13.65 -9.32,19.64 -0.5,5.99 1.67,15.31 9.65,15.81 8.32,0.5 13.32,-6.32 15.65,-13.81 12.48,2.83 19.3,-4.66 21.13,-10.15 1.17,-4.17 -0.83,-6.33 -1.99,-4.17l-1.67 2.83zm11.15 -3.66c2.17,0 2.17,-2.66 4,-1.16 1,1 -1.83,3.83 -1.33,11.48 0,3.16 0.66,15.98 13.14,16.64 11.49,0.67 19.64,-15.97 20.97,-18.3 3.33,-6.66 0.83,-10.32 -0.5,-7.66 -3.99,6.99 -11.48,20.47 -19.47,20.47 -6.66,0 -7.49,-5.82 -7.32,-12.98 0,-7.16 2.16,-6.99 2.5,-10.82 0,-0.5 0.83,-4.66 -1.5,-5.99 -3.83,-2.16 -7.33,0.5 -8.32,1 -0.5,0.17 -1.67,0.67 -2.33,-0.17 -0.84,-0.83 0.83,-2.49 0.83,-3.99 0.17,-1.17 -1.17,-5.16 -3.66,-5.33 -3,-0.33 -4.66,5.66 -4.66,10.99 0,3.33 0.33,2.99 -0.34,3.99 -1.66,2.66 -2.16,4 -3.16,5.83 -1.5,2.99 1,6.15 2,4.66 2.33,-4 3.83,-6.33 4.66,-8.16 0.67,-1.5 2.33,-0.5 4.49,-0.5zm41.61 7.66c-0.5,6.66 -2.33,17.31 4.16,17.81 8.32,0.49 12.31,-20.31 13.65,-19.98 2.49,0.67 -4.33,21.14 12.81,21.64 12.48,0.5 20.8,-16.14 21.97,-18.47 3.33,-6.66 1.16,-10.49 -0.33,-7.83 -3.83,6.99 -11.49,21.97 -21.64,21.14 -13.15,-1 -3,-24.96 -5.33,-27.46 -2.66,-3.16 -6.32,-3.49 -7.82,0.17 -1.66,3.66 -9.15,24.46 -11.65,23.96 -3.32,-0.83 1.5,-12.65 -1.16,-19.8 -2.16,-5.66 -6.32,-4 -7.99,-1 -1.66,2.66 -2.66,4.33 -3.66,6.16 -1.5,2.99 1.16,5.66 2.33,4.32 2.16,-3.99 3.33,-6.65 3.83,-6.65 1.16,0 1.16,2.49 0.83,5.99z"/>
  <path class="fil5" d="M960.62 1023.18l-0.16 0c-31.3,0 -83.58,11.65 -84.57,33.13 -0.84,18.47 32.29,28.13 56.93,36.79 18.81,6.49 46.94,11.98 46.61,21.3 -0.33,9.33 -26.63,13.16 -36.79,12.82 -28.8,-1.16 -49.94,-15.48 -49.94,-15.48 -3.66,-2.33 -4.5,0.83 -4.5,0.83 0,0 18.32,19.48 54.28,20.48 32.79,1 44.78,-12.32 45.11,-17.98 0.67,-12.48 -26.8,-18.48 -45.95,-24.97 -24.97,-8.66 -59.76,-19.14 -59.43,-34.13 0.33,-9.99 38.46,-27.13 74.25,-26.47 30.46,0.5 32.79,10.82 32.46,13.99 -1.33,10.49 -17.48,13.98 -20.81,13.32 -2.33,-1.17 -4.99,4.49 0,4.99 7.66,1.66 27.3,-6.66 27.97,-18.65 0.83,-14.81 -20.48,-19.97 -35.46,-19.97zm85.4 85.4c3.67,-6.49 1,-10.32 -0.5,-7.66 -3.83,6.99 -9.82,20.81 -20.81,19.64 -4.32,-0.49 -5.66,-5.32 -5.66,-10.32 0.34,-5.99 0.34,-9.82 0.67,-11.65 0.67,-2.66 2.33,-4.33 -1.33,-5.33 -2,-0.5 -3.5,0.5 -4.16,3.33 -0.67,2.67 -1.17,5.16 -1.84,7.83 -0.99,3.99 -5.82,15.48 -10.15,14.98 -6.33,-0.83 -3,-16.15 -1.33,-21.81 1,-3.33 2.66,-5.99 -0.34,-6.82 -3.66,-1.17 -4.32,1.49 -4.49,2.49 -0.5,1.67 -2.66,7.99 -3.66,14.82 -1,6.82 1.83,16.31 8.65,16.98 8.33,0.67 12.49,-12.15 12.49,-12.15 0,0 1.83,12.65 12.82,12.48 8.65,-0.16 16.31,-10.99 19.64,-16.81zm9.16 -8.66c2.16,0 2.16,-2.66 3.99,-1.16 1,1 -1.83,3.83 -1.33,11.48 0,3.17 0.67,15.98 13.15,16.65 11.49,0.67 19.65,-15.98 20.98,-18.31 3.33,-6.66 0.83,-10.32 -0.5,-7.66 -4,6.99 -11.49,20.48 -19.48,20.48 -6.66,0 -7.49,-5.83 -7.32,-12.99 0,-7.16 2.16,-6.99 2.49,-10.82 0,-0.5 0.84,-4.66 -1.49,-5.99 -3.83,-2.17 -7.33,0.5 -8.33,1 -0.5,0.16 -1.66,0.66 -2.33,-0.17 -0.83,-0.83 0.83,-2.5 0.83,-3.99 0.17,-1.17 -1.16,-5.16 -3.66,-5.33 -2.99,-0.33 -4.66,5.66 -4.66,10.99 0,3.33 0.33,2.99 -0.33,3.99 -1.67,2.66 -2.17,4 -3.17,5.83 -1.49,2.99 1,6.16 2,4.66 2.33,-4 3.83,-6.33 4.66,-8.16 0.67,-1.5 2.33,-0.5 4.5,-0.5zm45.95 0c2.16,0 2.16,-2.66 3.99,-1.16 1,1 -1.83,3.83 -1.33,11.48 0,3.17 0.67,15.98 13.15,16.65 11.49,0.67 19.65,-15.98 20.98,-18.31 3.33,-6.66 0.83,-10.32 -0.5,-7.66 -4,6.99 -11.49,20.48 -19.48,20.48 -6.66,0 -7.49,-5.83 -7.32,-12.99 0,-7.16 2.16,-6.99 2.49,-10.82 0,-0.5 0.83,-4.66 -1.5,-5.99 -3.83,-2.17 -7.32,0.5 -8.32,1 -0.5,0.16 -1.66,0.66 -2.33,-0.17 -0.83,-0.83 0.83,-2.5 0.83,-3.99 0.17,-1.17 -1.16,-5.16 -3.66,-5.33 -3,-0.33 -4.66,5.66 -4.66,10.99 0,3.33 0.33,2.99 -0.33,3.99 -1.67,2.66 -2.17,4 -3.17,5.83 -1.5,2.99 1,6.16 2,4.66 2.33,-4 3.83,-6.33 4.66,-8.16 0.67,-1.5 2.33,-0.5 4.5,-0.5zm36.95 13.65c0.17,-3.33 3,-10.65 4.83,-11.98 1.83,4.99 5.33,9.15 9.99,11.82 -1.5,5.16 -5.16,10.98 -9.32,10.65 -5.5,-0.33 -5.66,-6.83 -5.5,-10.49zm15.82 -6.32c-3.16,-2 -5.5,-4.66 -6.33,-7.49 -1,-2.83 -0.66,-6.83 2.17,-7 3.99,-0.33 4.32,8.49 4.16,14.49zm21.31 -3.66c-3.83,7.49 -10.66,8.15 -16.15,5.99 0.16,-1 0.33,-2 0.33,-3 1.17,-14.48 -5.83,-19.81 -10.15,-19.48 -4.5,0.34 -6.83,3 -7.49,6.33 -5.5,0.83 -8.83,13.65 -9.33,19.64 -0.5,6 1.67,15.32 9.66,15.82 8.32,0.5 13.32,-6.33 15.65,-13.82 12.48,2.83 19.31,-4.66 21.14,-10.15 1.17,-4.17 -0.83,-6.33 -2,-4.17l-1.66 2.84zm21.31 -0.67c0,0 -6.5,22.14 -14.65,21.97 -4.33,0 -3,-8.82 -1.83,-14.98 0.99,-5.99 6.49,-16.65 11.32,-15.65 3.66,0.67 2.99,7.33 3.49,8.66 0.17,0.67 1.67,0 1.67,0zm-1.5 40.45c0,8.33 -0.17,17.98 -0.84,27.47 -0.83,14.48 -6.49,29.47 -13.31,28.13 -4.83,-0.99 -3.33,-10.98 -3.33,-13.98 0,-8.66 7.32,-28.13 17.48,-41.62zm-1 -22.97c0,0 0.5,6.49 0.83,16.15 -9.65,10.65 -20.64,30.3 -22.64,49.11 -1.17,12.15 3.33,17.81 8.49,17.64 14.15,-0.66 19.64,-22.64 19.98,-35.12 0.33,-8.83 -0.34,-20.31 -0.67,-30.8 2.33,-2.33 4.66,-4.33 6.99,-5.66 1.17,-0.17 0.17,-4.16 -0.66,-3.66 -1.83,0.16 -4,1.33 -6.49,3.33 -0.17,-9.16 -0.17,-17.15 0.83,-21.31 2.5,-9.49 4.83,-16.82 4.99,-17.15 1.5,-2.83 -3.99,-3.99 -5.16,-1.66l-2 3.82c0,0 -1.99,-4.66 -7.82,-5.49 -7.49,-1.16 -12.99,7.49 -16.15,17.15 -3.5,10.32 -3,20.47 6.49,22.64 7.49,1.66 12.99,-8.99 12.99,-8.99zm67.75 -12.15c3.5,-6.5 1.17,-10.32 -0.33,-7.66 -8.82,16.15 -15.31,21.31 -20.31,21.31 -11.15,0 -5.16,-17.82 -4.99,-17.82 0.33,-2.66 -5.83,-3.99 -6.16,-2.33 -0.67,4.17 -5.83,20.81 -11.99,20.81 -3.99,0 -5.16,-7.82 -3.33,-15.48 1.67,-7.49 6.5,-14.82 11.32,-14.65 5.66,0.17 4.66,7.16 4.66,7.16 1.17,0.5 2.83,1.66 4.17,-2.66 0.16,-0.84 0.99,-9.16 -8.66,-9.49 -5.33,-0.17 -15.82,6.82 -17.81,22.47 -2,15.65 5.99,18.48 9.15,18.48 5.83,0.16 11.82,-10.82 11.82,-10.82 0,0 1.5,10.15 11.49,9.99 9.82,-0.17 18.14,-13.99 20.97,-19.31zm41.46 -0.17c3.33,-6.66 1,-10.15 -0.5,-7.33 -4,7 -11.16,23.31 -26.47,23.14 -9.66,-0.16 -12.49,-4.66 -12.15,-14.64 0.33,-10.16 6.82,-18.82 13.15,-18.48 4.49,0.33 3.16,6.16 0.66,9.32 -1,1.33 -1.5,3.83 -0.66,4.49 1.66,1.17 3.49,0 4.49,-0.99 1.83,-1.84 4.5,-4.33 4.5,-9.49 0,-4.83 -3.17,-8.33 -8.83,-8.49 -12.32,-0.5 -19.64,14.48 -19.97,25.3 -0.5,10.99 7.49,18.31 17.98,17.98 18.64,-0.67 27.3,-19.64 27.8,-20.81zm-3.83 62.07c0.5,-15.87 11.99,-27.39 20.14,-33.58 -0.66,9.02 -0.66,18.2 -2.83,27.22 -0.66,3 -2.33,19.04 -11.82,19.04 -6.66,0 -5.66,-9.69 -5.49,-12.68zm25.97 -47.42c0.16,-5.8 4.49,-20.37 5.82,-25.33 1.67,-4.64 -0.33,-6.8 -1.83,-7.3 -2.49,-0.83 -5.82,2.5 -7.15,12.43 -3,7.96 -8.49,19.87 -14.82,20.2 -2.5,0.16 -2.66,-4.47 -2.66,-9.27 0,-4.8 2.49,-13.9 2.49,-13.9 0.17,0 1.5,-4.33 -1.33,-5.3 -3,-1.16 -5.83,7.11 -6.82,16.87 -0.84,9.46 2.83,15.43 8.99,15.59 5.49,0.17 9.48,-5.63 13.31,-12.76 -0.5,5.63 -1,11.6 -1.33,16.43 -7.66,5.52 -22.97,19.03 -26.13,42.09 -0.84,6.52 2.66,16.01 11.15,16.34 14.15,0.5 17.65,-21.86 18.15,-33.88 0.33,-6.02 0,-12.68 0.66,-18.37 0,-0.99 0.17,-1.99 0.33,-3.02 2,-1.5 3.33,-2.16 3.33,-2.16 0,0 3.16,-1.34 1.83,-2.5 -1.16,-1.17 -2.83,-2.17 -4.49,-1.5 0.33,-1.83 0.5,-3.33 0.5,-4.66z"/>
 </g>
</svg>
